<svg width="1121.55751953125px" height="143.0164794921875px" xmlns="http://www.w3.org/2000/svg" viewBox="-310.77875976562495 3.49176025390625 1121.55751953125 143.0164794921875" style="background: rgb(95, 42, 98);" preserveAspectRatio="xMidYMid"><defs><linearGradient id="editing-glowing-gradient" x1="0.8146601955249185" x2="0.18533980447508147" y1="0.8885729807284856" y2="0.11142701927151444"><stop offset="0" stop-color="#a976c3"></stop><stop offset="1" stop-color="#a0de59"></stop></linearGradient><filter id="editing-glowing" x="-100%" y="-100%" width="300%" height="300%"><feGaussianBlur in="SourceGraphic" result="blur" stdDeviation="10"></feGaussianBlur><feMerge><feMergeNode in="blur"></feMergeNode><feMergeNode in="SourceGraphic"></feMergeNode></feMerge></filter></defs><g filter="url(#editing-glowing)"><g transform="translate(-149.375, 114.1015625)"><path d="M22.50-11.25L0-11.25L0-90L22.50-90L22.50-78.75L33.75-78.75L33.75-67.50L45-67.50L45-56.25L56.25-56.25L56.25-90L78.75-90L78.75-11.25L56.25-11.25L56.25-33.75L45-33.75L45-45L33.75-45L33.75-56.25L22.50-56.25L22.50-11.25ZM157.50-11.25L112.50-11.25L112.50-22.50L101.25-22.50L101.25-33.75L90-33.75L90-67.50L101.25-67.50L101.25-78.75L112.50-78.75L112.50-90L157.50-90L157.50-78.75L168.75-78.75L168.75-67.50L146.25-67.50L146.25-78.75L123.75-78.75L123.75-67.50L112.50-67.50L112.50-33.75L123.75-33.75L123.75-22.50L146.25-22.50L146.25-33.75L168.75-33.75L168.75-22.50L157.50-22.50L157.50-11.25ZM247.50-11.25L191.25-11.25L191.25-22.50L180-22.50L180-78.75L191.25-78.75L191.25-90L247.50-90L247.50-78.75L258.75-78.75L258.75-22.50L247.50-22.50L247.50-11.25ZM202.50-78.75L202.50-22.50L236.25-22.50L236.25-78.75L202.50-78.75ZM348.75-11.25L281.25-11.25L281.25-90L303.75-90L303.75-22.50L348.75-22.50L348.75-11.25ZM438.75-11.25L371.25-11.25L371.25-90L393.75-90L393.75-22.50L438.75-22.50L438.75-11.25ZM528.75-11.25L450-11.25L450-90L528.75-90L528.75-78.75L472.50-78.75L472.50-56.25L517.50-56.25L517.50-45L472.50-45L472.50-22.50L528.75-22.50L528.75-11.25ZM596.25-11.25L573.75-11.25L573.75-78.75L551.25-78.75L551.25-90L618.75-90L618.75-78.75L596.25-78.75L596.25-11.25ZM686.25-11.25L663.75-11.25L663.75-78.75L641.25-78.75L641.25-90L708.75-90L708.75-78.75L686.25-78.75L686.25-11.25ZM798.75-11.25L731.25-11.25L731.25-22.50L753.75-22.50L753.75-78.75L731.25-78.75L731.25-90L798.75-90L798.75-78.75L776.25-78.75L776.25-22.50L798.75-22.50L798.75-11.25Z" fill="url(#editing-glowing-gradient)"></path></g></g><style>text {
  font-size: 20px;
  font-family: Arial Black;
  dominant-baseline: central;
  text-anchor: middle;
}</style></svg>