<?xml version="1.0" encoding="utf-8"?>
<!-- Generator: Adobe Illustrator 21.0.1, SVG Export Plug-In . SVG Version: 6.00 Build 0)  -->
<svg version="1.1" id="Calque_1" xmlns="http://www.w3.org/2000/svg" xmlns:xlink="http://www.w3.org/1999/xlink" x="0px" y="0px"
	 viewBox="0 0 432 432" style="enable-background:new 0 0 432 432;" xml:space="preserve">
<style type="text/css">
	.st0{fill:#DA1C5C;}
	.st1{fill:#C87B33;}
	.st2{fill:#010101;}
	.st3{fill:#CB7B29;}
	.st4{fill:none;stroke:#CB7B29;stroke-miterlimit:10;}
	.st5{fill:#D8DEC8;}
	.st6{fill:#24592C;}
	.st7{fill:#95C13D;}
	.st8{fill:#EC6B6E;}
	.st9{fill:#75BAE7;}
	.st10{fill:#644F43;}
	.st11{fill:#C49548;}
	.st12{fill:#BCBEC0;}
</style>
<g>
	<g>
		<g>
			<g>
				<path d="M133.5,197.6c1.6-0.9,3-2.1,4.3-3.3c1.4-1.3,2.8-2.5,4-3.9c1.5-1.6,3.4-1.9,5.4-1.7c2.6,0.3,4.2,1.7,5.1,4.1
					c0.6,1.6,0.9,3.2,1.1,4.9c0.4,2.9,0.5,5.8,0.6,8.7c0.3,5.5,0.7,11.1,1.9,16.5c0.1,0.6,0.3,1.2,0.5,1.8c0.3,0.9,0.4,0.9,1.1,0.3
					c1.4-1.3,2.6-2.8,3.6-4.4c1.4-2.2,2.7-4.6,3.8-7c2.3-4.9,4.8-9.8,7.6-14.5c0.4-0.7,0.7-1.4,1-2.2c0.9-2.9,2.2-5.6,4.1-8
					c2.2-2.8,5.1-4.7,8.7-5.2c1.6-0.2,3.3-0.2,4.9,0.3c2.8,0.9,3.3,2.7,3.3,5.1c0,0.4-0.3,0.7-0.6,0.9c-1.1,0.5-2.6,0.2-3.3-0.8
					c-0.2-0.3-0.4-0.5-0.7-0.8c-0.4-0.5-0.5-0.5-0.9,0c-0.6,0.8-1.2,1.7-1.6,2.6c-1,2.2-1.8,4.4-2.3,6.7c-0.7,3.1-1.3,6.2-1.5,9.4
					c-0.2,3.5-0.1,6.9,1.1,10.3c0.1,0.3,0.2,0.7,0.4,1c0.5,1,0.6,1,1.4,0.3c0.8-0.8,1.5-1.6,2.2-2.5c1.6-2.3,2.8-4.9,3.8-7.5
					c1.7-4.3,2.7-8.9,3.7-13.4c0.1-0.6,0.3-1.1,0.4-1.7c0.2-0.7,0.6-1.2,1.3-1.4c1.4-0.5,2.9-0.5,4.3,0c0.8,0.3,1.2,0.9,1.3,1.7
					c0.1,0.8,0.2,1.6,0.2,2.5c0.1,3.5,0.1,6.9,0.2,10.4c0.1,2.7,0.4,5.4,1,8.1c0.2,0.8,0.4,1.5,0.8,2.2c0.3,0.6,0.5,0.6,0.9,0.2
					c0.8-0.8,1.5-1.8,2-2.8c1.3-2.4,2.2-4.9,3-7.4c1.2-4,2.3-8.1,3.2-12.2c0.3-1.1,0.1-2.2,0-3.3c-0.2-1.7-0.3-3.4-0.1-5.1
					c0.2-1.8,0.8-2.6,2.5-3.1c1.7-0.5,3.5-0.4,5.2,0.1c1,0.3,1.8,1,2.2,2c0.4,1.1,0.8,2.2,1.1,3.3c1.2,4.4,2.4,8.7,3.8,13
					c0.1,0.3,0.2,0.6,0.4,1c0.4-1.1,0.5-2.1,0.6-3c0.6-3.3,1.2-6.6,2.1-9.9c0.3-1,0.6-2,1-3c0.6-1.5,1.7-2.2,3.3-2.3
					c1.8-0.1,3.3,0.4,4.6,1.7c1,1,2,1.9,3.1,2.6c0.6,0.4,0.6,0.4,0.9-0.3c1.1-2.6,2.4-5.1,4.1-7.3c1.3-1.7,2.8-3.2,4.6-4.3
					c2.2-1.3,4.5-1.8,6.9-1.4c2.8,0.5,4.3,2,4.8,4.9c0.5,3.3-0.5,6.1-2.4,8.8c-1.7,2.4-4.1,3.7-6.9,4.5c-1.1,0.3-1.1,0.3-1.2,1.5
					c-0.5,4.6,0.2,9.1,2,13.3c0.8,2,1.8,3.9,3.4,5.5c2.2,2.1,2.5,2,5,0.8c2.6-1.2,4.7-3,6.6-5.1c0.7-0.8,1.4-1.6,2.1-2.4
					c0.3-0.4,0.4-0.7,0.3-1.2c-0.9-3.4-1.6-6.8-2-10.3c-0.4-3-0.7-6-0.9-9c-0.5-6-0.5-12-0.3-18c0.2-6.8,0.9-13.6,2.8-20.1
					c0.6-2.1,1.4-4.1,2.3-6c0.1-0.3,0.3-0.6,0.5-0.8c1.4-2.7,4.1-3,6.1-2.5c1.4,0.3,2.3,1.3,3.1,2.4c0.8,1.2,1.4,2.6,1.9,3.9
					c1.5,4.1,2.3,8.2,2.9,12.5c0.4,3.4,0.6,6.9,0.5,10.4c-0.1,3.3-0.4,6.5-0.8,9.8c-0.8,6-2.2,11.9-4.2,17.7
					c-0.1,0.3-0.2,0.6-0.3,0.8c-0.7,1.3-0.7,2.6-0.4,4c0.8,3.6,1.6,7.2,3.1,10.6c1.1,2.6,2.5,5.1,4.7,7.1c1.9,1.8,1.7,1.5,3.7,0.6
					c2.4-1.1,4.2-2.8,5.5-5.1c0.9-1.7,2.3-2.6,4-3.4c0.7-0.3,1.4-0.3,1.9,0.3c0.2,0.2,0.4,0.4,0.6,0.6c0.6,0.8,0.8,1.7,0.4,2.7
					c-0.9,2.3-2.3,4.2-4.2,5.8c-2.7,2.2-5.8,3.7-9.3,4.2c-4.7,0.6-8.9-0.5-12.6-3.4c-2.3-1.8-4-4-5.4-6.4c-0.1-0.1-0.1-0.2-0.2-0.3
					c-0.5-0.8-0.5-0.8-1.1-0.2c-0.6,0.6-1.1,1.1-1.7,1.6c-3.3,2.9-7.1,4.6-11.5,4.9c-4.4,0.3-8.5-0.5-12.2-3c-3.3-2.2-5.3-5.3-6.6-9
					c-0.8-2.3-1.3-4.6-1.4-7.1c-0.2-2.6,0.1-5.2,0.7-7.7c0.1-0.4,0.2-0.8-0.4-1c-1.9-0.8-3.6-1.9-5.2-3.2c-0.1-0.1-0.2-0.1-0.2-0.1
					c-0.3,0.2-0.3,0.4-0.3,0.7c-0.9,3.3-1.4,6.6-1.9,10c-0.4,2.8-0.7,5.6-0.9,8.4c-0.2,2.7-0.2,5.5,0,8.2c0,0.3,0.1,0.7,0.2,1
					c0.2,0.7,0.4,1.4,0.6,2.1c0.2,1.1-0.1,1.7-1,2.3c-0.8,0.5-1.7,0.7-2.5,0.8c-1.3,0.1-2.5,0.1-3.8-0.2c-1.7-0.4-3-1.2-3.9-2.7
					c-1.5-2.2-2.7-4.5-3.7-6.9c-1.2-2.9-2.3-5.8-3.2-8.8c-0.1-0.4-0.3-0.8-0.5-1.3c-0.2,0.8-0.5,1.6-0.7,2.4
					c-0.8,2.8-1.7,5.5-2.9,8.2c-0.6,1.4-1.3,2.7-2.2,4c-3.1,4.6-10.2,4-12.7-0.4c-0.6-1-1-2.1-1.4-3.2c-0.3,0.4-0.4,0.8-0.6,1.1
					c-0.8,1.8-1.8,3.5-3,5c-1.8,2.3-4.1,3.6-7,4c-2.4,0.3-4.7,0.2-7-0.5c-3.4-1.1-5.5-3.6-6.7-6.8c-0.6-1.5-0.9-3.2-1.1-4.8
					c0-0.1,0-0.3-0.2-0.5c-0.3,0.4-0.4,0.8-0.5,1.2c-0.9,2.4-1.8,4.9-2.9,7.3c-1.3,2.8-2.9,5.5-5,7.7c-2.1,2.2-4.7,3.5-7.8,3.4
					c-1.1,0-2.3,0-3.4-0.3c-2.8-0.6-4.8-2.2-6.3-4.6c-1.6-2.6-2.5-5.5-3.1-8.5c-0.5-2.5-0.7-5.1-0.8-7.7c-0.2-3.5,0.1-7,0.1-10.6
					c0-1.2,0.1-2.4,0.2-3.6c0-0.2,0.1-0.5-0.2-0.8c-0.5,0.4-0.9,0.7-1.4,1.1c-2.1,1.8-4.3,3.5-6.9,4.6c-0.5,0.2-0.6,0.6-0.7,1.1
					c-0.2,2.7-0.7,5.4-1.4,8.1c-1.6,6.7-4,13.1-7.8,18.8c-0.8,1.1-1.6,2.2-2.6,3.1c-2.1,2-4.6,2.7-7.5,2.4c-3.2-0.3-5.8-1.8-7.8-4.3
					c-1.7-2-2.9-4.3-3.9-6.7c-2.1-4.7-3.3-9.7-4.2-14.7c-0.7-4.2-1.3-8.4-1.6-12.7c-0.3-3.5-0.4-7.1-0.6-10.6
					c-0.3-10.3-0.1-20.5-0.1-30.8c0-0.3,0-0.7,0-1c0-0.4-0.2-0.6-0.7-0.6c-5.5,0.6-10.7,1.9-15.7,4.3c-4.8,2.3-9,5.3-13,8.8
					c-0.6,0.5-1.1,0.7-1.8,0.5c-0.7-0.1-0.9-0.5-0.8-1.2c0.2-0.8,0.6-1.5,1-2.1c1.2-1.7,2.7-3.2,4.4-4.5c4.8-3.9,10.4-6.4,16.3-7.9
					c3-0.8,6.1-1.3,9.3-1.7c1-0.1,1.1-0.2,1.1-1.3c0.1-3,0.2-5.9,0.6-8.8c0.1-0.8,0.3-1.6,0.5-2.3c0.3-0.8,0.8-1.3,1.7-1.6
					c1.1-0.3,2.1-0.4,3.2,0c0.9,0.3,1.6,0.9,2.1,1.7c0.7,1.3,1.2,2.7,1.5,4.2c0.5,1.9,0.8,3.8,1.1,5.7c0,0.1,0,0.3,0.1,0.4
					c0.2,0.9,0.2,0.9,1.1,0.8c1.2-0.2,2.4-0.2,3.6-0.3c7.8-0.5,15.6-1.7,23.2-3.5c5.9-1.4,11.6-3.2,17.4-5
					c5.1-1.6,10.2-3.4,15.2-5.4c1.2-0.4,2.3-0.5,3.6-0.4c0.6,0,1.2,0.2,1.7,0.6c0.7,0.5,0.7,1,0.1,1.6c-0.4,0.4-0.9,0.6-1.3,0.9
					c-2.1,1.1-4.4,2.1-6.6,3c-5.2,2.2-10.3,4.3-15.7,5.9c-6.8,2.1-13.7,3.8-20.8,4.9c-5.1,0.8-10.3,1.3-15.4,1.5
					c-1.5,0.1-3,0.1-4.6,0.2c-0.9,0.1-0.9,0.1-0.9,1c0.3,4.7,0.6,9.3,0.7,14c0,1.9,0.1,3.7,0.1,5.6c0.1,4.5,0.3,9,0.4,13.4
					c0.1,2.8,0.2,5.5,0.4,8.3c0.2,3.9,0.5,7.8,0.9,11.7c0.5,4.8,1.1,9.6,2.2,14.3c0.6,2.7,1.3,5.3,2.4,7.8c0.3,0.7,0.7,1.4,1.1,2.1
					c0.5,0.8,0.6,0.8,1.4,0.2c0.9-0.7,1.7-1.6,2.4-2.5c2.4-3.1,4.2-6.7,5.7-10.3c1.9-4.5,3.2-9.1,3.9-13.9c0-0.3,0.1-0.6,0.1-0.9
					c0.1-0.7,0.1-0.8-0.7-0.7c-1.8,0-3.5-0.2-5.2-0.9c-3.5-1.3-5.5-3.9-6.1-7.5c-0.4-2.3-0.3-4.6,0.4-6.9c0.2-0.6,0.4-1.2,0.7-1.8
					c1-1.8,2.5-2.8,4.6-3c2.7-0.2,4.9,0.6,6.6,2.7c1.9,2.3,3,5,3.6,7.9c0.3,1.5,0.5,3,0.6,4.5C133.4,197.1,133.3,197.3,133.5,197.6z
					 M284.4,188.3c0.3-0.4,0.4-0.7,0.5-1c1-3.1,1.9-6.3,2.6-9.5c0.7-3.3,1.2-6.6,1.4-9.9c0.1-2.7,0.1-5.3-0.1-8
					c-0.4-3.7-1-7.4-2.1-10.9c-0.6-1.9-1.3-3.7-2.5-5.3c-0.2-0.3-0.3-0.6-0.7-0.7c-0.2,0.2-0.2,0.3-0.2,0.5
					c-0.4,2.9-0.7,5.7-0.8,8.6c-0.1,3.3-0.1,6.7-0.1,10c0.1,3.3,0.3,6.6,0.5,9.9c0.3,4.2,0.6,8.5,1.1,12.7
					C284.1,185.8,284.2,187,284.4,188.3z M129.3,197.2c0.1-0.7-0.1-1.5-0.2-2.4c-0.2-2.3-0.8-4.6-1.8-6.7c-0.7-1.4-1.5-2.6-2.8-3.6
					c-0.5-0.4-0.7-0.4-1,0.2c-0.3,0.6-0.5,1.2-0.6,1.8c-0.5,3.1-0.1,6.1,1.1,9c0.5,1.2,1.2,2.1,2.2,2.9c0.6,0.5,1.3,0.8,2.1,0.8
					c0.7,0.1,0.9-0.1,1-0.8C129.3,198.2,129.3,197.8,129.3,197.2z M260.2,180.1c-1.3,1.3-3.9,8.8-3.6,10.4
					C260,188.6,261.9,182.8,260.2,180.1z"/>
				<path d="M199.1,275.9c-1,3.2-2,6.4-3.3,9.5c-1,2.5-2.2,5-3.7,7.3c-1.4,2.1-3.2,3.6-5.9,3.7c-2.6,0.2-4.9-0.5-6.9-2.3
					c-1.6-1.4-2.7-3.2-3.6-5.1c-1.5-3.3-2.5-6.8-3.1-10.4c-0.7-3.8-1-7.7-1.2-11.5c-0.2-3.6-0.1-7.2-0.1-10.8c0-0.8,0.1-1.5,0.1-2.3
					c0-0.8-0.1-0.8-0.8-0.7c-2.3,0.5-4.5,1-6.8,1.4c-1.3,0.3-2.6,0.5-3.9,0.6c-0.8,0.1-1.6,0-2.4-0.2c-0.3-0.1-0.7-0.2-0.9-0.4
					c-0.6-0.4-0.6-1-0.1-1.4c0.5-0.4,1-0.6,1.6-0.9c1.7-0.7,3.4-1.2,5.2-1.6c2.5-0.7,5-1.4,7.5-1.9c0.8-0.2,0.8-0.2,0.9-1
					c0.1-1.1,0.2-2.3,0.3-3.4c0.4-4.4,0.9-8.8,1.8-13.2c0.1-0.7,0.4-1.4,0.5-2c0.3-0.9,0.8-1.4,1.7-1.6c1-0.3,1.9-0.3,2.9,0
					c0.9,0.3,1.5,0.9,1.7,1.7c0.3,1,0.4,2,0.5,3c0.1,1.1,0.2,2.3,0.2,3.4c0,3.3,0,6.5,0,9.8c0,0.3,0,0.5,0,0.8
					c0,0.4,0.2,0.5,0.6,0.5c0.9-0.1,1.8-0.2,2.6-0.3c1.1-0.1,2.1,0,3.1,0.3c0.6,0.2,1.2,0.4,1.2,1.2c0.1,0.8-0.6,1.1-1.2,1.3
					c-1.1,0.4-2.2,0.6-3.3,0.8c-0.8,0.2-1.6,0.4-2.4,0.5c-0.5,0.1-0.7,0.4-0.7,0.8c0,2.9-0.3,5.7-0.1,8.6c0.1,0.7,0,1.4,0,2.1
					c0,4.4,0.3,8.8,0.6,13.2c0.4,4.3,0.9,8.7,2.2,12.8c0.4,1.2,0.8,2.3,1.4,3.3c0.6,1.2,0.7,1.3,1.6,0.2c1.1-1.2,1.9-2.5,2.7-3.9
					c2.4-4.1,4.2-8.5,5.7-13c1.5-4.5,2.7-9.1,3.7-13.8c0.2-0.7,0.2-1.5,0.3-2.3c0.2-3,0.3-6.1,0.4-9.1c0.2-3.8,0.5-7.7,0.7-11.5
					c0.1-2.3,0.4-4.7,0.8-7c0.1-0.3,0.1-0.7,0.2-1c0.2-1.3,1-2,2.2-2.2c1-0.2,2-0.2,3,0.2c0.9,0.3,1.5,0.9,1.8,1.8
					c0.4,1.4,0.7,2.9,0.9,4.4c0.5,3.3,0.8,6.7,1.1,10c0.2,2.6,0.3,5.3,0.4,7.9c0.1,2.7,0.1,5.4,0.2,8.1c0,0.2,0,0.3,0.1,0.5
					c0.4-0.2,0.5-0.5,0.7-0.8c1.7-2.8,3.7-5.3,6-7.6c0.8-0.8,1.6-1.4,2.5-2c0.9-0.5,1.8-0.8,2.8-0.8c1.9,0,3.4,0.7,4.5,2.4
					c1,1.6,1.5,3.4,1.9,5.2c0.7,3.1,1,6.3,1.4,9.5c0.2,2.5,0.5,5.1,0.7,7.6c0.1,1.5,0.2,2.9,0.3,4.4c0.2,2.9,0.4,5.7,1.2,8.5
					c0.1,0.4,0.3,0.8,0.4,1.3c0.1,0.4,0.4,0.5,0.7,0.3c1.1-0.7,2-1.7,2.9-2.7c0.3-0.3,0-0.7-0.1-1c-0.9-1.6-1.5-3.2-1.9-5
					c-0.4-1.8-0.6-3.7-0.7-5.6c-0.1-5.2,0.6-10.3,2.1-15.3c0.7-2.3,1.7-4.4,3.2-6.4c2.9-3.9,7.9-4.6,11.6-3.4c2.6,0.9,4,2.8,4.4,5.5
					c0.5,2.9,0,5.6-0.8,8.4c-1.1,3.7-2.9,7.2-4.9,10.5c-0.8,1.3-1.7,2.6-2.6,3.8c-0.3,0.4-0.5,0.8-0.4,1.4c0.4,2.1,0.9,4.2,1.9,6.2
					c0.5,0.9,1,1.7,1.8,2.3c0.5,0.4,1,0.5,1.7,0.4c1.4-0.3,2.8-0.8,4-1.5c2.7-1.6,5.1-3.4,7.1-5.8c0.5-0.5,0.9-1.1,1.2-1.7
					c0.5-1,1.3-1.6,2.3-2c0.7-0.3,1.2-0.1,1.7,0.4c0.5,0.5,0.8,1,0.6,1.7c-0.2,1-0.7,1.9-1.2,2.7c-0.9,1.4-2,2.6-3.2,3.8
					c-1.5,1.4-3,2.6-4.7,3.8c-2.7,1.8-5.7,2.7-8.9,2.9c-2.1,0.1-4.2-0.1-6.2-0.6c-2-0.5-3.7-1.5-5.3-2.8c-0.7-0.6-0.7-0.6-1.4,0.1
					c-0.3,0.4-0.7,0.8-1,1.1c-2.1,2.1-5.4,2.6-8,1.3c-0.7-0.3-1.3-0.8-1.8-1.4c-1.4-1.6-2-3.6-2.4-5.6c-0.7-2.9-1-5.8-1.2-8.8
					c-0.2-3.6-0.2-7.2-0.4-10.9c-0.1-3.1,0-6.3-0.3-9.4c-0.1-0.9-0.2-1.7-0.4-2.5c-0.2-0.6-0.3-0.6-0.8-0.3
					c-1.1,0.7-2.1,1.6-2.9,2.6c-3.4,3.8-6,8.1-7.9,12.8c-0.2,0.4-0.2,0.8-0.2,1.2c-0.1,4.3-0.1,8.5-0.3,12.8
					c-0.1,2.6-0.1,5.3-0.5,7.9c-0.2,1.6-1.1,2.4-2.6,2.8c-1.5,0.4-3,0.4-4.5-0.1c-1.2-0.4-2.1-1.1-2.6-2.3c-0.7-1.6-1-3.3-1.3-5.1
					C199.1,281.9,199.1,278.9,199.1,275.9z M246.8,272.8c0.4-0.4,0.6-0.9,0.8-1.3c1.9-3.6,3.3-7.3,3.7-11.3c0.2-1.9-0.1-3.7-0.9-5.4
					c-0.2-0.3-0.3-0.7-0.7-0.8C247.8,256.9,246.4,269.4,246.8,272.8z"/>
				<g>
					<path d="M119.5,304.5c-0.4,0-0.5,0.3-0.7,0.6c-2.4,3.1-4.2,6.4-5.6,10c-0.4,0.9-0.7,1.2-1.5,1.2c-0.8-0.1-1.3-0.5-1.5-1.4
						c-0.1-0.5-0.1-0.9,0-1.4c0.2-1.3,0.5-2.5,1-3.8c0.9-2.3,1.9-4.5,3.3-6.5c0.3-0.4,0.6-0.8,0.9-1.2c1.1-1.5,2.5-2.2,4.3-2.4
						c1.2-0.1,2.3-0.1,3.5,0.2c1.8,0.5,3.1,1.5,4.1,3.1c1,1.5,1.6,3.1,2.2,4.8c1.3,3.8,2.1,7.6,2.9,11.5c0.8,4.4,1.5,8.8,2.1,13.2
						c0.4,2.9,0.7,5.8,1,8.7c0.5,4.4,1,8.8,1.8,13.2c0,0.1,0.1,0.2,0.1,0.4c0.3-0.3,0.3-0.6,0.4-0.9c1.4-4.9,2.4-9.8,3.3-14.8
						c1.3-7,2.3-14.1,3.8-21.1c0.9-4.2,2.1-8.2,3.8-12.2c0.1-0.2,0.2-0.5,0.3-0.7c0.4-1,1.2-1.5,2.2-1.8c1-0.2,2-0.2,3,0.1
						c0.9,0.3,1.6,0.8,2.1,1.7c0.5,0.8,0.8,1.7,1.1,2.6c1.4,4.2,2.5,8.6,3.4,13c1,5.2,2,10.3,3.1,15.5c0.8,3.9,1.6,7.8,2.6,11.6
						c0.1,0.2,0.1,0.4,0.3,0.6c0.3-0.3,0.3-0.7,0.4-1.1c1.1-3.9,1.9-7.9,2.7-11.9c1.1-5.4,2.4-10.8,4.4-16c1.1-2.7,2.3-5.2,4.1-7.5
						c2.3-2.8,5.2-4.1,8.8-4.3c2.3-0.1,4.5,0.3,6.7,0.7c2.5,0.3,5,0.5,7.5,0.5c0.6,0,0.9-0.2,1.2-0.8c0.8-1.6,1.8-3.2,3-4.5
						c3.2-3.4,7-4.9,11.7-4.1c0.7,0.1,1.4,0.4,2,0.7c0.5,0.3,0.9,0.7,1.2,1.2c0.4,0.7,0.3,1.1-0.5,1.3c-0.7,0.3-1.4,0.3-2.1,0.1
						c-0.7-0.3-1.2,0-1.6,0.6c-1.4,1.7-2.3,3.6-3,5.6c-1.5,4-2.4,8.2-3.1,12.4c-0.5,3-0.9,6-0.8,9.1c0.1,2.9,0.6,5.8,1.7,8.6
						c0.7,1.7,1.6,3.2,3,4.4c0.8,0.7,1.6,0.9,2.6,0.4c2-1,3.7-2.4,5.1-4c3.1-3.7,5.1-7.9,5.8-12.7c0.1-0.8,0.1-1.6,0.1-2.5
						c0-0.6-0.1-0.7-0.7-0.6c-1.5,0.2-2.9,0.3-4.4,0c-2.8-0.6-5-1.9-6.2-4.6c-0.4-1-0.7-2-0.5-3.1c0.2-1.2,0.9-2.1,1.9-2.7
						c1.4-0.8,2.9-1,4.5-0.9c3.7,0.3,6.5,2.1,8.6,5.2c0.6,0.9,0.6,0.9,1.4,0.1c0.9-0.9,1.6-1.9,2.2-3c0.4-0.8,0.4-0.8-0.3-1.3
						c-2.1-1.4-3.4-3.3-3.8-5.8c-0.1-0.7-0.1-1.3,0-2c0.4-1.9,1.5-3,3.5-3.3c3.1-0.4,5.3,1.3,5.7,4.4c0.2,1.7,0.1,3.3-0.2,4.9
						c-0.2,0.9-0.1,1,0.8,1.2c1.2,0.3,2.4,0.1,3.6-0.2c2.3-0.7,4.3-1.8,6-3.3c1.3-1.1,2.5-2.4,3.6-3.8c0.4-0.5,0.7-1.1,0.9-1.7
						c0.4-1.5,1.5-2.1,3-2.3c1.1-0.1,2.2-0.1,3.3,0.3c1.1,0.3,1.8,1.1,2.1,2.2c0.5,1.9,0.6,3.9,0.5,5.9c-0.2,4.1-0.9,8.1-1.2,12.2
						c-0.3,3.3-0.4,6.5-0.2,9.8c0.1,2.1,0.4,4.2,0.9,6.2c0.4,1.4,0.9,2.7,1.8,3.8c0.6,0.7,1.2,1,2.1,0.8c1.4-0.4,2.7-0.9,4-1.6
						c2.7-1.5,5-3.3,7.1-5.5c0.4-0.4,0.5-0.8,0.2-1.4c-1.9-4.3-2.9-8.8-3.4-13.4c-0.3-2.6-0.5-5.1-0.6-7.7c-0.1-2.4-0.2-4.8-0.1-7.1
						c0.1-3.6,0.3-7.1,0.6-10.6c0.5-5.1,1.1-10.1,2.1-15.1c0.5-2.5,1.1-4.9,2.1-7.2c0.5-1.1,1-2,1.8-2.9c1.8-2.1,5.8-2.5,7.9,0.1
						c1.1,1.3,2,2.8,2.7,4.4c1.6,3.4,2.5,7.1,3.1,10.8c0.8,5,1.1,10,1,15.1c-0.1,5.5-1,10.9-2.4,16.3c-1,4-2.5,7.8-4.3,11.5
						c-0.2,0.5-0.4,0.9-0.3,1.5c0.9,4.3,2.1,8.6,4.3,12.5c0.4,0.7,0.8,1.4,1.3,2.1c0.3,0.5,0.7,1,1.3,1.3c0.2,0.1,0.4,0.3,0.5,0.4
						c0.5,0.5,0.5,1,0,1.5c-0.4,0.4-1,0.6-1.5,0.8c-3.1,0.7-5.9,0.2-8.3-1.9c-1.6-1.4-2.8-3.1-3.9-4.8c-0.3-0.5-0.6-1-1-1.5
						c-0.2-0.3-0.4-0.3-0.7-0.1c-0.5,0.4-1,0.9-1.5,1.3c-3.2,2.7-6.7,4.6-10.8,5.4c-3.2,0.6-6.3,0.4-9.3-0.7
						c-3.8-1.4-6.3-4.2-7.7-7.9c-1-2.5-1.4-5.1-1.6-7.8c-0.3-6.1,0.8-11.9,2.2-17.8c0.1-0.3,0.2-0.7,0.2-1c0,0,0-0.1-0.1-0.2
						c-0.4,0.2-0.7,0.5-1.1,0.7c-2.1,1.4-4.4,2.5-6.9,3c-1.5,0.3-3,0.4-4.5,0.2c-0.8-0.1-0.9-0.1-1.3,0.6c-1.1,2.1-2.6,3.8-4.6,5.1
						c-0.5,0.3-0.7,0.7-0.6,1.3c0.5,3.1,0.2,6.1-0.7,9.1c-1.2,4.4-3.5,8.3-6.7,11.6c-2.5,2.5-5.5,4.1-9,4.5
						c-6.9,0.6-12.7-2.3-16-8.4c-1.6-3.1-2.4-6.3-2.6-9.8c-0.3-6.1,0.8-11.9,3-17.6c0.4-1.2,0.4-1.1-0.8-1.2
						c-3.3-0.1-6.7-0.2-10-0.8c-0.6-0.1-1.2-0.2-1.8-0.2c-2-0.2-3.7,0.5-5.1,1.8c-1.7,1.6-2.9,3.6-3.9,5.7
						c-2.2,4.6-3.6,9.5-4.8,14.5c-1.3,5.3-2.3,10.7-3.5,16.1c-0.4,2.1-0.9,4.2-1.5,6.2c-0.4,1.3-1.2,2-2.5,2.2
						c-2.8,0.5-5.1-0.4-7-2.6c-1.3-1.5-2.2-3.1-3-4.8c-1.2-2.7-2-5.5-2.7-8.4c-0.9-3.9-1.6-7.9-2.1-11.9c-0.6-4.3-0.9-8.6-1.3-13
						c-0.1-0.7-0.2-1.4-0.3-2.2c-0.4,0.4-0.4,0.8-0.5,1.2c-1.6,5.1-2.6,10.3-3.6,15.6c-1.7,8.6-3.4,17.2-5.5,25.7
						c-0.4,1.4-0.8,2.8-1.3,4.2c-0.5,1.4-1.5,2-3,2c-1.8,0-3.2-0.6-4.3-2.1c-1.2-1.6-2.1-3.3-2.8-5.1c-1.8-4.3-2.9-8.8-3.8-13.4
						c-1-5.3-1.8-10.6-2.5-15.9c-0.9-6.2-1.7-12.5-3.1-18.6C120.1,306.2,119.9,305.3,119.5,304.5z M287.1,321.5
						c0.1-0.1,0.1-0.3,0.2-0.4c3-7.3,4.7-15,4.9-22.9c0.1-1.9,0-3.8-0.1-5.7c-0.2-3.7-0.6-7.3-1.4-10.9c-0.7-3.2-1.8-6.2-3.9-8.8
						c-0.3-0.3-0.5-0.9-1-0.8c-0.4,0.1-0.3,0.7-0.4,1.1c-0.4,2.8-0.6,5.6-0.6,8.4c0,4.6,0,9.1,0.2,13.7c0.1,3.3,0.2,6.6,0.4,9.9
						c0.2,4.3,0.5,8.7,1,13C286.5,319.2,286.6,320.4,287.1,321.5z M222,317.3c0.1,1.2,0.5,2.5,1.6,3.5c0.8,0.8,1.7,1.1,2.9,0.7
						c0.9-0.3,0.9-0.4,0.6-1.2c-0.8-1.8-2-3.2-3.6-4.2c-1-0.7-1.4-0.5-1.5,0.8C222,316.9,222,317,222,317.3z M236.1,309.7
						c0.2-1.4-0.1-2.6-0.7-3.2C235.3,307.6,235.6,308.7,236.1,309.7z"/>
					<path d="M327,328.1c-0.2,0.5-0.4,0.9-0.6,1.4c-2,4.5-4.4,8.7-8.1,12.1c-1.4,1.3-2.9,2.4-4.7,3.1c-3.6,1.4-7.1,1.4-10.4-0.6
						c-1.9-1.2-3.3-2.9-4.2-4.9c-0.9-2.1-1.4-4.3-1.4-6.6c-0.1-6.2,1.4-11.9,5-17c2.4-3.5,5.8-5.3,10-5.8c2.8-0.3,5.4,0,8,1
						c1.9,0.7,3.4,1.9,4.6,3.6c0.4,0.7,0.7,1.4,1.1,2.3c0-1.3,0-2.3,0-3.4c0-4.6,0.2-9.2,0.5-13.8c0.4-5.5,1-11.1,1.7-16.6
						c0.4-3.6,0.8-7.2,1.2-10.8c0.1-1.3,0.3-2.6,0.6-4c0.2-1.3,0.9-2,2.1-2.4c1.5-0.4,3-0.4,4.5,0.2c0.8,0.3,1.3,0.9,1.5,1.8
						c0.2,1,0.4,2,0.5,3c0.3,4.2,0.6,8.4,0.3,12.6c0,0.3,0,0.6,0,0.9c0,4.7-0.3,9.3-0.5,14c-0.2,6.1-0.2,12.2-0.1,18.3
						c0.2,6.6,0.8,13.2,1.9,19.7c0.1,0.4,0.1,0.9,0.3,1.3c0.4,0,0.5-0.4,0.7-0.6c0.9-1.1,1.7-2.3,2.5-3.6c0.4-0.8,1.1-1.3,1.8-1.6
						c0.4-0.2,0.9-0.4,1.3,0c0.5,0.4,0.8,0.9,0.7,1.6c0,0.2-0.1,0.5-0.2,0.7c-1,2.9-2.7,5.5-4.8,7.7c-1.1,1.2-2.6,1.5-4.2,1.5
						c-3.8,0.1-6.6-1.6-8.4-4.9c-1.3-2.4-2-4.9-2.5-7.6c-0.2-0.9-0.3-1.7-0.5-2.6C327.1,328.1,327,328.1,327,328.1z M326.3,319.5
						c-0.1,0.5-0.2,0.8-0.3,1.1c-0.3,0.9-0.7,1.1-1.9,1.1c-0.9-0.1-1-0.2-1.3-1.2c-0.9-3.6-3.3-5.9-6.7-7.1
						c-0.6-0.2-1.1-0.1-1.6,0.2c-0.5,0.3-1,0.6-1.4,1c-1.1,1-2,2.2-2.7,3.5c-2.9,5.4-4.5,11.1-4.2,17.3c0.1,1.6,0.4,3.2,1,4.7
						c0.3,0.8,0.7,1.5,1.2,2.1c0.7,0.9,1.5,1.1,2.5,0.7c1.2-0.4,2.3-1,3.3-1.7c3-2,5.2-4.7,7-7.8c2.1-3.4,3.5-7.1,4.7-10.9
						C326.3,321.6,326.5,320.6,326.3,319.5z"/>
				</g>
			</g>
			<g>
				<path class="st3" d="M121.5,179.1c-0.1,0.1-0.2,0.2-0.2,0.3c-0.2,0.2-0.3,0.5-0.5,0.7c1.3-0.5,2.6-0.6,4-0.6c1-1.6,2-3.2,3-4.8
					c1-1.7,9.4-16.4,15.2-26.6c-1.2,0.2-2.7,0.9-4,0.9C132.6,160,122.6,177.5,121.5,179.1z"/>
				<path class="st3" d="M221.1,99.6c-0.1,0-0.2,0-0.2,0c-2.2,0-3.3,4.2-4.2,8.9c-0.2,0.8-0.3,1.5-0.4,1.9c-0.2,0.9-0.6,1.7-0.9,2.6
					c-1.5,4.4-2.9,8.5-0.4,12.9c0.1,0.2,0.2,0.2,0.3,0.3c0.2,0.1,0.2,0.1,0.4,0.1c0.5,0,1.4,0,3.4-6c1-2.7,1.8-6,2-7.1
					c0.2-1.8,0.3-3.7,0.4-5.4c0-0.6,0.1-1.1,0.1-1.7c0-0.2,0.1-0.7,0.2-1.3c0.4-2.1,0.6-3.7,0.2-4.6C222,99.7,221.4,99.6,221.1,99.6
					z"/>
				<path class="st3" d="M315.1,195.9c-0.1-0.1-0.1-0.1-0.2-0.1c-0.1-0.1-0.2-0.1-0.3-0.2c-0.1-0.1-0.2-0.1-0.2-0.1h-0.2l-0.1,0.1
					c-0.1,0.1-0.1,0.2-0.1,0.3v0.1c-0.1,0.1-0.1,0.1-0.2,0.2l-0.1,0.1c-0.2,0.2-0.3,0.3-0.5,0.6c-0.1,0.1-0.2,0.2-0.2,0.3
					c-0.1,0.1-0.2,0.2-0.2,0.3c0.1-0.2,0.2-0.4,0.2-0.7l0.1-0.2c0.1-0.3,0.3-0.7,0.3-1.1c0.1-0.1,0.2-0.1,0.2-0.2
					c0.1-0.1,0.1-0.2,0-0.3c-0.1-0.1-0.1-0.1-0.1-0.2c-0.2-0.2-0.3-0.3-0.6-0.4c-0.1-0.1-0.1-0.1-0.1-0.1l-0.1-0.1
					c-0.1,0-0.2,0-0.2,0l-0.1,0.1c-0.1,0.1-0.1,0.2-0.1,0.2v0.1c0,0.1-0.1,0.1-0.1,0.1c-0.2,0.2-0.3,0.4-2,2.2l-0.3,0.4
					c-0.1-0.1-0.2-0.1-0.3-0.1c-0.2,0-0.3,0.1-0.3,0.3c0,0.1,0,0.2,0.1,0.3l0.4,0.4c0.1,0,0.1,0.1,0.1,0.1c0.1,0.1,0.2,0.2,0.3,0.2
					c-0.1,0,0,0,0.1,0.1c0.2,0.1,0.4,0.1,0.4-0.1c0.1-0.2,0.1-0.3,0-0.5l0.9-1c0.1-0.1,0.2-0.2,0.2-0.2c0.1-0.1,0.2-0.2,0.2-0.2
					c0,0,0.1-0.1,0.2-0.2c0,0,0,0,0.1-0.1c0,0,0,0.1-0.1,0.1l-0.4,1.2c0,0.1-0.1,0.1-0.1,0.2c0,0.1,0,0.1-0.1,0.1
					c-0.1,0.2-0.1,0.3-0.2,0.4c-0.1,0.1-0.1,0.2-0.1,0.3h-0.1l-0.1,0.1c-0.1,0.1-0.2,0.2-0.2,0.3s0.2,0.3,0.2,0.3
					c0.1,0.1,0.2,0.2,0.4,0.3c0.1,0.1,0.1,0.1,0.2,0.2c0.1,0.1,0.1,0.1,0.2,0.2c0.1,0.1,0.2,0.1,0.4,0c0.1-0.1,0.2-0.2,0.2-0.4v-0.1
					l0.1-0.1c0.3-0.3,0.5-0.6,0.8-0.9l0.1-0.1c0.2-0.2,0.3-0.3,0.4-0.5c0.1-0.1,0.2-0.2,0.3-0.3c0.1-0.1,0.2-0.2,0.3-0.3
					c0.2-0.2,0.3-0.3,0.4-0.5c0.1,0,0.2-0.1,0.3-0.2c0.1-0.1,0.1-0.3-0.1-0.4C315.3,196,315.2,195.9,315.1,195.9z"/>
				<path class="st3" d="M308.6,167.7c-0.1,0.1,0.1,0.2,0.3,0.3c0,0,0.1,0.1,0.2,0.1c0.2,0.1,0.4,0.3,0.6,0.5
					c0.1,0.1,0.2,0.1,0.2,0.2l0.1,0.1h0.2c0.1,0,0.2-0.1,0.2-0.1l0.1-0.1v-0.3l-0.1-0.1c0-0.1-0.1-0.1-0.1-0.1
					c0.2-0.2,0.4-0.5,0.7-0.8c0.4-0.4,0.8-0.9,0.9-0.9c0.2-0.2,0.4-0.5,0.7-0.8c0.1-0.1,0.2-0.3,0.3-0.4l0.1-0.1
					c0.1-0.2,0.1-0.3-0.1-0.4l-0.3-0.3c-0.1-0.1-0.3-0.2-0.4-0.3c-0.1-0.1-0.1-0.1-0.2-0.2l-0.1-0.1c-0.2-0.2-0.4-0.4-0.6-0.5
					c-0.2-0.2-0.4-0.2-0.8-0.2c-0.1,0-0.2,0.1-0.3,0.1s-0.2,0.1-0.2,0.4l0.1,0.1c0.1,0.1,0.2,0.2,0.3,0.2c0.1,0,0.2,0,0.3-0.1h0.1
					c0,0,0.1,0,0.1,0.1c0.1,0.1,0.2,0.1,0.3,0.2c0.2,0.2,0.3,0.3,0.4,0.4l-0.2,0.2c-0.1,0.1-0.2,0.2-0.2,0.2
					c-0.1,0.1-0.2,0.2-0.2,0.2l-0.1,0.2c-0.1,0.1-0.1,0.1-0.1,0.1l-0.6-0.5c-0.2-0.1-0.3-0.1-0.3-0.1c-0.1,0.1-0.3,0.2-0.2,0.3
					c0,0.2,0.1,0.2,0.2,0.3c0.2,0.1,0.3,0.2,0.4,0.4l-0.2,0.2c-0.1,0.1-0.2,0.2-0.2,0.2l-0.7,0.7l-0.1,0.1l-0.2-0.2
					c-0.2-0.2-0.4-0.3-0.7-0.6c-0.1-0.1-0.2-0.1-0.4-0.1c-0.1,0.1-0.2,0.1-0.2,0.3v0.1c0,0.1,0.1,0.2,0.2,0.3
					C308.3,167.4,308.5,167.6,308.6,167.7z"/>
				<path class="st3" d="M343.3,164.1l0.1-0.1c0.1-0.1,0.1-0.1,0.1-0.2v-0.1c0.2-0.4,0.1-0.8-0.1-1.1l-0.1-0.2
					c-0.1-0.1-0.2-0.2-0.3-0.3c-0.2-0.2-0.4-0.3-0.7-0.4c-0.6-0.2-1.4,0-1.8,0.7l-0.1,0.1c-0.1,0.4-0.1,0.8,0.2,1.1
					c0.1,0.2,0.3,0.3,0.4,0.6c0.1,0.2,0.1,0.3,0.1,0.4c-0.1,0.2-0.1,0.3-0.3,0.3c-0.5,0.3-1,0.2-1.2,0.2c-0.1-0.1-0.2-0.1-0.2-0.2
					c-0.1-0.1-0.1-0.2,0.1-0.3c0.1-0.1,0.1-0.1,0.2-0.1l0.1-0.1v-0.1c0.1-0.1,0.2-0.2,0.1-0.3c0-0.2-0.2-0.3-0.3-0.3l-0.2,0.1
					c-0.2,0.1-0.3,0.2-0.3,0.2l-0.1,0.1c-0.2,0.2-0.4,0.4-0.4,0.7c-0.1,0.2,0,0.4,0.1,0.6l0.1,0.2c0.1,0.3,0.6,0.8,1.6,0.8
					c0.2,0,0.3-0.1,0.4-0.2c0.2-0.1,0.9-0.4,1-1.1c0.1-0.2,0.1-0.3,0.1-0.6c-0.1-0.4-0.2-0.6-0.2-0.6c-0.1-0.1-0.1-0.1-0.1-0.1
					l-0.1-0.1c-0.1-0.1-0.1-0.2-0.1-0.3c0.1-0.2,0.2-0.3,0.4-0.3c0.1,0,0.2-0.1,0.3,0c0.2,0,0.3,0.1,0.4,0.1h0.1
					c0.1,0.1,0.1,0.3,0,0.4c0,0,0,0,0,0.1l-0.2,0.2l0.1,0.1v0.1c0.1,0.1,0.1,0.1,0.1,0.2C343,164.2,343.2,164.2,343.3,164.1z"/>
				<path class="st3" d="M342.3,155.1c-11.8-7.1-27.6-4.3-37.6,6.7c-8.3,9.9-9.9,23-3.8,33.4c6,10.4,18,16.3,29.9,14.8
					c12.6-1.6,23.1-11.4,25.4-23.8c2-10.3-2-21.2-9.8-28.1C345.1,157,343.7,156,342.3,155.1z M354.7,181.8
					c-0.6,11.6-8.4,21.5-19.8,25.2c-9.6,3.1-19.5,1.1-26.6-5.2c-1.2-1.2-2.4-2.4-3.5-3.8c-7.9-10-7.3-24.3,1.6-34.8
					c8.1-8.9,19.5-12.4,29.8-9.1C347.5,157.7,355.3,169.4,354.7,181.8z"/>
				<path class="st3" d="M344,160.9c-1.3-1.1-2.6-2.1-4.1-2.9c-10.9-6.3-24.4-4.2-33.1,5.2c-7.2,8.8-8.4,20.6-2.9,30.1
					c5.3,9.3,16,14.5,26.6,13.1c11-1.5,20.2-10.1,22.1-21.1C354.3,176.1,350.9,166.9,344,160.9z M308.5,164.3
					c4.2-4.5,9.9-7.4,16-8.1l0.4,5.5c-4.8,0.4-9.3,2.6-12.7,6.2c-3,3.7-4.6,8.4-4.4,13.1l-5.2,0.3
					C302.4,175.1,304.5,169.2,308.5,164.3z M329.2,180.6L329.2,180.6v0.1c-0.1,0.3-0.2,0.7-0.3,0.9c-0.1,0.2-0.2,0.4-0.3,0.5
					c-0.1,0.1-0.2,0.2-0.4,0.3l-0.1,0.1c-0.4,0.3-0.8,0.4-1.2,0.5c-0.3,0.1-0.7,0.1-0.9-0.1c-0.5-0.2-0.9-0.5-1.2-1.1
					c0,0,0-0.1-0.1-0.1l-0.1-0.1c-0.2-0.4-0.2-0.9-0.2-1.4v-0.1v-0.1c0.1-0.2,0.1-0.4,0.2-0.6c0.1-0.3,0.3-0.7,0.6-0.9
					c0.1-0.1,0.2-0.2,0.3-0.3c0.2-0.1,0.3-0.2,0.4-0.3c0.3-0.1,0.5-0.2,0.8-0.3c0.4-0.1,0.8-0.1,1.2,0.1c0.5,0.1,0.8,0.4,1.1,1
					c0.1,0.1,0.1,0.1,0.1,0.2v0.1C329.2,179.7,329.2,180.2,329.2,180.6z M324.9,183.8l-5.5,6.3c-0.2,0.2,0,0.5,0.2,0.6
					c0.3,0.3,0.6,0.5,0.8,0.7c0.1,0.1,0.1,0.1,0.2,0.1c-0.1,0-0.2,0.1-0.3,0.1c-0.2,0.1-0.5,0.1-0.8,0.2l-2.8,0.6l0.3-3.9l0.2,0.2
					c0,0,0.7,0.6,1.2,0.6c0.2,0,0.3-0.1,0.4-0.2l5.1-5.9C324.1,183.3,324.5,183.6,324.9,183.8z M323.3,177.7
					c-0.1,0.2-0.2,0.3-0.3,0.5l-1.8-2.2l2.3,1.5C323.5,177.5,323.4,177.6,323.3,177.7z M321.4,178.9l-5.7-0.7
					c-0.3-0.1-0.6,0.1-0.7,0.2c-0.1,0.2-0.1,0.4-0.1,0.6c0.2,0.3,0.6,0.7,1,0.8l3.5,0.4l-8.3,0.7c-0.2,0-0.3,0.2-0.3,0.3
					c0.1,0.4,1.1,1,1.4,0.9l6.9-0.6l-3.4,1l-0.2,0.1l-0.1,0.2c-0.1,0.2,0.1,0.3,0.2,0.4c0.3,0.3,0.9,0.7,1.4,0.6l4.1-1.2l-4,4.7
					l-0.6-0.5c-0.3-0.4-1.1-0.7-1.5-0.6c-0.2,0.1-0.3,0.2-0.3,0.4l-0.4,6.4c0,0.2,0.1,0.3,0.2,0.5c0.3,0.3,1,0.5,1.3,0.4l6.3-1.3
					c0.3-0.1,0.3-0.2,0.3-0.3c0.1-0.2-0.1-0.3-0.2-0.5c-0.2-0.2-0.4-0.4-0.6-0.5c-0.4-0.3-0.5-0.4-0.4-0.8c0.1-0.3,0.9-1.2,1.4-1.6
					c0.2-0.2,0.4-0.4,0.5-0.5l2.1-2.4l-0.1,5.2c0,0.6,0.8,1,1.3,1c0.4,0,0.7-0.2,0.7-0.6l0.1-2.1l1,5.4c0.1,0.4,0.6,0.6,0.9,0.7
					c0.4,0.2,0.7,0.2,0.9,0.1l0.1-0.2l-1.3-7l0.6,1.5c0.2,0.4,1,0.7,1.4,0.7c0.2,0,0.3,0.1,0.4-0.1l0.1-0.2l-1.4-3.4l8.5,5.5
					c0.1,0.1,0.2,0.1,0.3,0.1c-3.5,3.5-8.5,5.5-13.6,5.3c-5.2-0.3-9.6-2.7-12.6-6.8c-4.8-6.7-4.4-15.7,1.1-22.3
					c0.2-0.2,0.3-0.3,0.5-0.5c0.2,0.2,0.2,0.5,0.6,1.3c0.4,1.1,1,2,1.6,2.8L321.4,178.9z M329.9,183.5c0.1-0.1,0.2-0.2,0.3-0.3
					c0.1-0.1,0.2-0.3,0.3-0.4l1.9,2.4L329.9,183.5z M337.5,188.8l-5.3-6.6l5.5,0.8c0.3,0.1,0.6,0,0.7-0.2c0.1-0.1,0.2-0.3,0.1-0.6
					c-0.1-0.3-0.6-0.8-1-0.8l-3.7-0.6l8.5-0.4c0.2,0,0.3-0.2,0.3-0.3c0-0.4-1.1-1-1.4-1l-7.1,0.3l3.7-0.9l0.3-0.1l-0.1-0.2
					c-0.1-0.3-1.1-1.1-1.6-0.9l-4,1l8-9.1c0.3,0.3,0.5,0.7,0.7,1c4.5,6.6,3.9,15.8-1.4,21.8c-0.1,0.2-0.3,0.3-0.4,0.4
					c0-0.2,0-0.5-0.2-1.1C338.6,190.5,338.1,189.6,337.5,188.8z M337.9,169.1l-7.9,9c-0.3-0.3-0.8-0.7-1.2-0.9l9-10.6
					c0.4,0.3,0.8,0.7,1.2,1.1C338.9,167.9,338.4,168.4,337.9,169.1z M328.1,174.9l0.2-5.2c0-0.3-0.2-0.6-0.5-0.8
					c-0.3-0.2-0.8-0.3-1.2-0.2c-0.2,0.1-0.3,0.3-0.3,0.5l-0.1,1.9l-0.9-5.4c-0.1-0.3-0.5-0.6-0.8-0.7c-0.3-0.1-0.7-0.2-0.9-0.1
					l-0.1,0.2l1.2,6.9l-0.6-1.4c-0.2-0.4-0.9-0.7-1.3-0.7c-0.2-0.1-0.4-0.1-0.5,0.1l-0.1,0.2l1.4,3.7l-8.6-5.6
					c-0.1-0.1-0.2-0.1-0.3-0.1c6-5.7,15-6.9,21.6-2.7L328.1,174.9z M309.8,198.4c-4.3-4.1-6.8-9.6-7.3-15.6l5.2-0.3
					c0.7,5.5,3.6,10.4,8.3,13.5c3.3,2.3,7.3,3.4,11.3,3.4l0.4,5.5C321,205.2,314.5,202.9,309.8,198.4z M345.1,196.6
					c-0.3,0.4-0.7,0.8-1.1,1.2c0-0.1-0.1-0.1-0.1-0.1c0,0,0,0-0.1-0.1c0.1-0.1,0.1-0.1,0.1-0.2l0.2-0.2c0.1-0.1,0.2-0.3,0.3-0.4
					l0.1-0.1c0.1-0.2,0.2-0.3,0.5-0.8l0.1-0.1c0.2-0.3,0.6-0.8,0.6-0.9c0.1-0.1,0.2-0.2,0.2-0.3l0.1-0.2c0.1-0.1,0.1-0.2,0-0.3
					L346,194l-0.2-0.1h-0.1c-0.1-0.1-0.1-0.1-0.1-0.1c-0.1-0.1-0.3-0.2-0.4-0.2c-0.1,0-0.2,0.1-0.2,0.1c0,0-0.1,0.1-0.1,0.1
					l-0.2,0.1c-0.1,0.1-0.1,0.1-0.2,0.1c-0.1,0-0.1,0.1-0.1,0.1c-0.1,0-0.1,0.1-0.1,0.1c-0.1,0-0.1,0.1-0.1,0.1l0.1-0.1
					c0.1-0.2,0.2-0.3,0.2-0.4l0.1-0.2c0.1-0.1,0.1-0.2,0.2-0.3c0.1-0.2,0.1-0.3-0.1-0.4l-0.1-0.1l-0.1-0.1l-0.2-0.1
					c-0.3-0.2-0.5-0.4-0.7-0.2l-0.1,0.1c-0.2,0.1-0.3,0.2-0.4,0.3c-0.1,0.1-0.2,0.1-0.2,0.2l-0.2,0.1c-0.1,0-0.1,0.1-0.2,0.1
					c-0.2,0.1-0.3,0.2-0.4,0.3l-0.1,0.1c-0.1,0.1-0.1,0.1-0.2,0.1l-1.3,0.9c0,0,0,0-0.1,0l-0.1-0.1c-0.2-0.1-0.3-0.1-0.4,0
					c-0.1,0.1-0.2,0.2-0.2,0.4v0.1l0.1,0.1c0.2,0.2,0.9,0.8,1.1,0.9c0.1,0,0.1,0.1,0.1,0.1c0.2,0.1,0.3,0,0.4-0.1
					c0.1-0.2,0.1-0.3-0.1-0.4h-0.1c0.1-0.1,0.3-0.2,0.5-0.4c0.2-0.2,0.4-0.3,0.6-0.4c0.1-0.1,0.1-0.1,0.2-0.1
					c0.1-0.1,0.2-0.1,0.2-0.2c0.1-0.1,0.3-0.2,0.4-0.3c0.1-0.1,0.2-0.1,0.2-0.2c-0.1,0.1-0.1,0.1-0.1,0.2c-0.1,0.2-0.2,0.3-0.2,0.4
					c-0.1,0.1-0.1,0.2-0.1,0.2c-0.1,0.1-0.2,0.2-0.2,0.3v0.1c-0.1,0.1-0.1,0.2-0.1,0.3c0,0.1,0.1,0.2,0.3,0.3c0.1,0.1,0.3,0,0.3-0.1
					c0.1-0.1,0.1-0.1,0.3-0.3c0.1-0.1,0.2-0.1,0.3-0.2l-0.2,0.3c0,0.1-0.1,0.1-0.1,0.1c-0.1,0.1-0.1,0.2-0.1,0.2l-0.3,0.5
					c-0.1,0.2-0.2,0.3-0.3,0.4l-0.1,0.1l-0.1,0.1c-0.1-0.1-0.2-0.1-0.3,0h-0.2l-0.1,0.2c-0.1,0.1,0,0.3,0.2,0.4
					c0.1,0.1,0.4,0.3,0.4,0.4l0.1,0.1c0.3,0.2,0.4,0.3,0.6,0.4c-3.9,3.7-8.9,6-14.4,6.6l-0.4-5.5c5-0.4,9.5-2.6,12.7-6.3
					c3.2-3.6,4.8-8.3,4.5-13.1l5.2-0.3C351.2,185.9,349.1,191.9,345.1,196.6z M345.8,178.5c-0.5-3.8-2.2-7.5-4.8-10.4
					c-0.8-0.9-1.8-1.8-2.7-2.5c-0.1-0.1-0.1-0.1-0.2-0.2l-0.2-0.2c-0.1-0.1-0.2-0.2-0.4-0.3c-0.1-0.1-0.2-0.1-0.2-0.2
					c-0.1-0.1-0.1-0.1-0.2-0.1c-3.3-2.1-7-3.2-10.9-3.2l-0.4-5.5c6.7-0.4,13,1.9,17.8,6.5c4.2,4,6.8,9.6,7.3,15.6L345.8,178.5z"/>
				
					<ellipse transform="matrix(0.6584 -0.7527 0.7527 0.6584 -39.4282 297.9805)" class="st3" cx="308.6" cy="192.4" rx="1.6" ry="1.6"/>
				
					<ellipse transform="matrix(0.6584 -0.7527 0.7527 0.6584 -35.7539 293.8846)" class="st3" cx="305.9" cy="186.3" rx="1.6" ry="1.6"/>
				<path class="st3" d="M306.4,175c-0.3-0.3-0.7-0.4-1.1-0.4c-0.4,0.2-0.8,0.3-1.1,0.6c-0.3,0.3-0.4,0.7-0.4,1.1
					c0.1,0.8,0.8,1.5,1.7,1.4c0.8-0.1,1.5-0.8,1.4-1.7C306.8,175.6,306.7,175.3,306.4,175z"/>
				<path class="st3" d="M307.9,171.6c0.4-0.1,0.7-0.3,1-0.6c0.3-0.3,0.4-0.7,0.4-1.1c-0.1-0.4-0.2-0.8-0.5-1.1
					c-0.3-0.3-0.7-0.4-1.1-0.4c-0.4,0.1-0.8,0.2-1.1,0.6c-0.3,0.3-0.4,0.7-0.4,1.1c0.1,0.4,0.2,0.8,0.6,1.1
					C307.1,171.5,307.5,171.6,307.9,171.6z"/>
				<path class="st3" d="M315.7,163.5c0.3-0.3,0.4-0.7,0.3-1.1s-0.2-0.8-0.5-1c-0.3-0.3-0.7-0.4-1.1-0.3c-0.4,0.1-0.8,0.2-1.1,0.6
					c-0.6,0.5-0.4,1.5,0.2,2.1C314.2,164.2,315.1,164.1,315.7,163.5z"/>
				<path class="st3" d="M319.5,160.8c0.7,0.6,1.6,0.4,2.2-0.2c0.3-0.3,0.4-0.7,0.3-1.1c-0.1-0.4-0.2-0.8-0.5-1
					c-0.3-0.3-0.7-0.4-1.1-0.3c-0.4,0.1-0.8,0.2-1.1,0.6c-0.3,0.3-0.4,0.7-0.3,1.1C319,160.2,319.3,160.6,319.5,160.8z"/>
				<path class="st3" d="M331.7,157.9c-0.3-0.3-0.7-0.4-1.2-0.4c-0.8,0.1-1.4,0.8-1.4,1.7c0.1,0.4,0.2,0.8,0.6,1.1
					c0.3,0.3,0.7,0.4,1.1,0.3c0.4-0.1,0.8-0.2,1.1-0.6c0.3-0.3,0.4-0.7,0.3-1.1C332.2,158.5,331.9,158.1,331.7,157.9z"/>
				<path class="st3" d="M336.8,159.7c-0.4,0.1-0.8,0.2-1.1,0.6c-0.3,0.3-0.4,0.7-0.3,1.1c0.1,0.4,0.2,0.8,0.6,1.1
					c0.3,0.3,0.7,0.4,1.1,0.3c0.8-0.1,1.4-0.8,1.4-1.7c-0.1-0.4-0.2-0.7-0.5-1C337.6,159.8,337.2,159.7,336.8,159.7z"/>
				<path class="st3" d="M343.6,169.1c0.3,0.3,0.7,0.4,1.1,0.3c0.4-0.1,0.8-0.2,1.1-0.6c0.3-0.3,0.4-0.7,0.3-1.1s-0.2-0.7-0.5-1
					c0,0,0,0-0.1-0.1c-0.7-0.6-1.6-0.4-2.2,0.2C342.9,167.6,343,168.5,343.6,169.1z"/>
				<path class="st3" d="M345.9,174c0.1,0.4,0.2,0.8,0.6,1.1c0.7,0.6,1.6,0.4,2.2-0.2c0.5-0.7,0.4-1.6-0.2-2.1c0,0,0,0-0.1-0.1
					c-0.7-0.6-1.6-0.4-2.2,0.2C346,173.3,345.9,173.6,345.9,174z"/>
				<path class="st3" d="M347.3,185.2c0.3,0.3,0.7,0.4,1.1,0.3c0.4,0,0.8-0.2,1-0.6c0.3-0.3,0.4-0.7,0.3-1.1c-0.1-0.4-0.2-0.7-0.5-1
					c-0.3-0.3-0.7-0.4-1.2-0.4c-0.8,0.1-1.4,0.8-1.3,1.7C346.9,184.5,347,184.9,347.3,185.2z"/>
				<path class="st3" d="M344.6,190.4c0.1,0.4,0.2,0.8,0.6,1.1c0.3,0.3,0.7,0.4,1.1,0.3c0.4-0.1,0.8-0.2,1.1-0.6
					c0.3-0.3,0.4-0.7,0.3-1.1c-0.1-0.4-0.2-0.7-0.5-1c-0.3-0.3-0.7-0.4-1.2-0.4C345.1,188.9,344.5,189.6,344.6,190.4z"/>
				<path class="st3" d="M338.4,197.1c-0.6,0.7-0.4,1.6,0.2,2.2c0.7,0.5,1.6,0.4,2.2-0.3c0.5-0.7,0.4-1.6-0.2-2.1l-0.1-0.1
					C339.9,196.4,339,196.5,338.4,197.1z"/>
				<path class="st3" d="M334.7,199.9c-0.7-0.5-1.6-0.4-2.2,0.3c-0.3,0.3-0.4,0.7-0.3,1.1s0.2,0.8,0.6,1c0.7,0.5,1.6,0.4,2.2-0.2
					C335.4,201.4,335.3,200.5,334.7,199.9L334.7,199.9z"/>
				<path class="st3" d="M324.6,200.9L324.6,200.9c-0.4-0.3-0.8-0.4-1.2-0.4c-0.8,0.1-1.4,0.9-1.3,1.7c0.1,0.8,0.8,1.4,1.7,1.3
					c0.8-0.1,1.4-0.9,1.3-1.7C325,201.5,324.9,201.1,324.6,200.9z"/>
				<path class="st3" d="M318.3,198.9L318.3,198.9c-0.4-0.3-0.8-0.4-1.2-0.4c-0.4,0.1-0.8,0.3-1,0.6c-0.3,0.3-0.4,0.7-0.3,1.1
					c0.1,0.9,0.8,1.5,1.7,1.4c0.8-0.1,1.4-0.9,1.3-1.7C318.7,199.4,318.5,199.1,318.3,198.9z"/>
				<path class="st3" d="M351.7,156.2c0.2,0.2,0.7,0.4,0.9,0.2l0.6-0.7c4.5,1.9,9,1.2,12.1-1.9c1.9-1.9,2.9-4.2,2.9-6.7
					c-0.1-2.8-1.4-5.7-3.8-7.9c-0.1-0.1-0.3-0.2-0.4-0.3c-4.2-3.7-9.7-3.5-15.4,0.4c-4.8,3.9-3.9,8.8-1.3,12l-0.3,0.4
					c-0.1,0.1-0.1,0.3,0.1,0.5l0.7,0.6c-0.1,0.2-0.2,0.3-0.3,0.4l-0.4-0.4c-0.2-0.2-0.6-0.4-0.9-0.1l-1.6,1.8
					c-1-0.7-1.8-1.2-2.7-1.7c-9.3-5-20.1-5.1-29.3-0.7c-1-1.9-2.3-3.9-2.3-3.9c-0.9-1.3-1.8-2.5-2.7-3.7c-0.6-0.7-1.2-1.5-1.7-2.3
					c-7.3-9.9-14.1-19.5-20.4-28.6l-0.2-0.3c-2.9-4.1-7.1-10.3-12.5-10.7H272c-4.7,0-7.9,3.7-10.6,6.8c-0.2,0.3-0.6,0.6-0.8,1
					c-4.9-8.8-10.2-17.1-16.3-25.1c-1.8-2.5-4.1-4.5-6.2-6.4c-1.4-1.2-2.7-2.5-4.1-3.9l-0.6-0.6c-2.1-2.2-4.2-4.5-7.1-4.5
					c-1.2,0-2.4,0.3-3.6,1.1c-7.5,4.4-12.2,12.7-16.3,20.1c-0.9,1.6-1.7,3.1-2.5,4.5c-1,1.5-1.9,3.1-2.9,4.6c-1.4,2.3-2.9,4.6-4.2,7
					c-0.5,0.9-1,1.8-1.4,2.7c-1.7,3.3-3.5,6.8-5.5,9.8c-0.9-1.4-3.1-4-8.2-8.7c-0.2-0.2-0.5-0.5-0.7-0.7c-2.5-2.4-5.5-5.1-8.7-5.1
					c-1.6,0-3.1,0.6-4.5,1.8c-2.6,2.2-4.8,5.1-6.8,7.9c-0.9,1.2-1.8,2.5-2.8,3.7c-2.5,3.2-4.8,6.7-6.8,10.1c-1,1.7-2.1,3.4-3.3,5.1
					c-1.2,1.8-3.1,4.4-4.2,6.2c1.2-0.3,3.2-1.2,4.4-1.5c1-1.8,1.8-3.1,2.1-3.5c0.4-0.6,0.9-1.5,1.4-2.5c1.2-2.3,2.6-5.1,4.1-6
					c1.4-0.9,2.3-1.8,3.4-2.9l0.4-0.4c0.2-0.2,0.4-0.2,0.6-0.4c0.4-0.2,1-0.4,1.5-1.2c0-0.1,0.1-0.1,0.1-0.2c-0.1,0.5-0.2,1-0.3,1.5
					c-0.2,0.9-0.5,1.7-0.5,2.7c0,0.2-0.3,1-0.6,1.7c-0.6,1.7-1.2,3.1-0.5,3.9c0.2,0.2,0.6,0.4,0.9,0.4c1.4,0,2.9-2.3,5.3-6.1
					c0.6-1,1.4-2.2,2-3c1,4.5,1.7,6.1,2.9,6.1c0.2,0,0.4-0.1,0.6-0.2c0.9-0.5,1.4-1.8,2-3.4c0.3-0.9,1.1-2.8,1.5-2.9
					c0,0,0.2,0.1,0.6,0.7c0.2,0.2,0.5,1,0.8,1.7c1.2,2.9,1.7,4.1,2.5,4.4c0.3,0.2,0.6,0.2,0.9,0.2c1.8,0,2.5-2.4,3-4.5
					c0.1-0.4,0.2-1,0.4-1.4c0.5,1,1,2,2.1,2.2h0.2c0.7,0,1.3-0.6,1.9-1.4c0-0.1,0.1-0.1,0.2-0.2c-1.4,3-3.1,6-4.8,8.9
					c-1,1.7-2,3.4-2.9,5.2c-0.6,1-13.2,26.1-14,27.3c-1.9,3.3-4.1,6.9-4.8,10.2c-0.1,0.5-0.2,1,0.2,1.3c0.2,0.2,0.4,0.3,0.6,0.3
					c1,0,2.5-2.5,2.5-2.6c0.5-1,1-1.9,1.4-2.9c0.7-1.4,1.4-2.9,2.1-4.4c2.5-4.8,17.1-33.7,19.8-38.4l1.1-2.1c0.2-0.3,0.5-1,1-2
					c3.3-6.8,5.3-10.5,6.3-11c0.3,0.5,0.7,2.2,1,3.3c0.6,2.5,1,4.4,2.2,4.4c0.9,0,1.6-0.9,2.5-3.3c0.2-0.6,0.4-1,0.6-1.6
					c0.4-1.3,0.8-2.3,1.5-3.6c1.5-2.7,2.3-4.9,2.5-7c0.2-2,2.9-4.9,5-6.8c0,0.8-0.2,1.8-0.4,2.8c-0.5,2.4-1,4.8,0.7,5.9
					c0.2,0.2,0.5,0.2,0.8,0.2c1.7,0,2.7-2.8,3.7-5.6c0.1-0.3,0.2-0.7,0.3-0.8c1.7-3.5,3.8-6.9,5.2-9.1c0.3-0.5,0.5-0.6,0.6-0.7
					c0.4,0.5,0.6,2.7,0.8,3.5c0.2,1.4,0.2,1.8,0.6,2.1c0.7,0.5,0.5,2.5,0.4,4.1c-0.2,1.6-0.2,3.2,0.2,4.1c0.3,0.6,0.5,1.5,0.6,2.4
					c0.3,1.5,0.6,2.9,1.8,2.9c0.7,0,1.4-0.6,2.3-1.7c2-2.6,3.1-7.9,3.3-10.8c0.1-1.7,0.2-3,0.6-4.4c0.1-0.2,0.1-0.5,0.1-0.7
					c0.1,1.7,0.2,3.3,0.4,5.1c0.2,1,0.3,1.8,0.5,2.7c0.2,1.1,0.4,2.2,0.6,3.3c0,0.1,1.1,4.4,2.5,4.4c0.6,0,1-0.5,1-1.4
					c0.1-1,0.4-1.8,0.8-2.8c0.4-1.1,0.9-2.2,0.9-3.4c0-2.1,0.5-5,1.7-6c0.1-0.1,0.1-0.1,0.1-0.1c0.3,0,0.8,0.5,1.2,0.8
					c0.2,0.2,0.6,0.5,0.8,0.6c0.6,0.3,1.2,0.5,1.7,0.5s1.1-0.2,1.5-0.3c0.4-0.1,0.6-0.2,1-0.2c0.2,0,0.4,0.1,0.6,0.2
					c2.9,1.6,4.7,5.2,6.4,8.5c0.6,1.2,1.2,2.4,1.8,3.4c0.2,0.2,0.4,0.6,0.7,1c0.5,0.6,1.5,2.1,1.7,2.6c-2.4,2.7-4.7,5.6-6.9,8.3
					c-3.6,4.6-6.8,9.5-9.9,14.4c-0.6,1-1.3,1.9-1.9,2.9c-0.2,0.3-0.5,0.6-0.6,1c-1.3,1.8-14.4,25.9-15.3,28.1
					c-0.1,0.2-0.2,0.6-0.4,1c-1.3,2.8-2.4,5.3-1.4,6.7c0.2,0.4,0.6,0.5,0.8,0.5c0.6,0,1.3-0.6,2.1-3.2v-0.1l0.2-0.3
					c0.8-2,1.5-4,2.5-5.8c0.5-0.9,12.8-23.8,13.3-24.7c1.1-2.1,2.2-4.1,3.5-6c-0.4,1.7-0.6,3.6,0.9,4.3c0.2,0.1,0.4,0.2,0.6,0.2
					c1.7,0,3.3-2.7,5-5.4c0.2-0.3,0.3-0.6,0.5-0.7c0.6-1,1.2-2,1.7-2.9c1-1.7,1.8-3.2,3.1-4.6c0,0.1-0.1,0.1-0.1,0.2
					c-0.2,0.6-0.5,1.2-0.6,1.8c-0.2,0.6,0,1.1,0.2,1.4c0.3,0.4,0.8,0.6,1.4,0.6c0.5,0,1-0.2,1.4-0.5c1.4-1,2.4-2.3,3.4-3.6
					c0.2-0.3,0.5-0.6,0.7-0.9c0.1-0.1,0.2-0.2,0.3-0.4c0.5-0.6,1.4-1.7,2-1.7h0.1c0.3,0.5,0.5,2.5,0.5,3.1c0,0.4,0.1,0.6,0.1,0.9
					c0.1,0.6,0.2,1.2,0.4,1.7c0.3,1.1,0.6,2.1,0.3,3.3c-0.3,1.7-0.6,3.5,0.2,5.5c0.6,1.4,1.5,2.4,2.4,3.4c0.8,1,1.5,1.8,2.1,2.9
					c0.3,0.6,0.8,0.8,1,0.8c1.9,0,3.3-6.8,3.3-6.9c0.1-0.8-0.2-1.5-0.5-2.2c-0.2-0.6-0.4-1-0.4-1.5v-1c0-1.7,0.1-3.5,0.4-5.2
					c0.1-0.5,0.7-3.2,1.2-4.7c0.1,0.1,0.1,0.2,0.2,0.2c0.2,0.5,0.5,1,0.9,1.3c0.6,0.6,1.4,0.9,2,1c0.9,0.3,1.4,0.5,1.6,1.1v0.4
					c0,1,0,2.5,1.2,2.5c0.3,0,0.6-0.1,0.9-0.3c1.7-1.4,1.7-3.5,1.7-5.2v-1.4c0.8,1.2,1.7,1.4,2.7,1.7c0.5,0.2,1,0.2,1.4,0.5
					c2.9,1.5,4.1,3.8,5.6,6.5c0.6,1.1,1.3,2.3,2.1,3.4c1.3,1.8,2.7,3.7,4,5.3c1.3,1.6,2.5,3.3,3.7,5c0.6,0.7,1,1.7,1.6,2.5
					c0.8,1.3,2.5,4,4.1,6c-2.8,1.6-5.4,3.7-7.7,6.2c-9.6,11.4-10.9,27.1-3.3,38.3c6.8,9.8,19.5,15.4,32.4,14.2
					c14.7-1.3,25.9-12.2,27.4-26.4c0.9-9.5-2.4-19.3-9-26.4l1.6-1.9c0.2-0.2,0.1-0.5-0.1-0.7l-0.7-0.6c0.2-0.1,0.3-0.2,0.4-0.3
					L351.7,156.2z M350.3,140.5c5.4-3.8,10.5-3.5,14,0.8c2.9,3.5,2.7,8.2-0.4,11.3c-2.5,2.4-5.9,3-9.4,1.9l1.6-1.8
					c0.1-0.1,0.1-0.3-0.1-0.5l-4.6-4c0.1-0.1-0.6-0.6-0.9-0.2l-1.7,2C346.4,146.7,347.1,143.2,350.3,140.5z M357.3,183.5
					c-0.6,12.4-8.5,22.7-20.2,26.2c-11.2,3.3-23.4,0.6-31.5-6.5c-2.3-2-4.3-4.4-5.8-7c-6-10.8-4.3-25,4.5-35.4
					c8.9-9.8,22.8-13,34.5-8C350.4,157.5,358,170.2,357.3,183.5z M349.2,158.4c-1.1-1.1-2.4-2.2-3.7-3.2l1.2-1.4l0.5,0.4
					c0.1,0.6,0.3,1.1,0.8,1.6c0.5,0.5,1.2,0.7,1.8,0.7l0.6,0.5L349.2,158.4z M350.8,154.3c0,0.2-0.1,0.3-0.1,0.4
					c0,0.1-0.1,0.1-0.1,0.1c0,0.1-0.1,0.1-0.1,0.1c-0.1,0.1-0.1,0.1-0.1,0.2c-0.2,0.2-0.3,0.3-0.6,0.4c-0.2,0.1-0.4,0.1-0.6,0.1
					c-0.2-0.1-0.3-0.1-0.4-0.2c-0.1-0.1-0.1-0.1-0.2-0.2c-0.1-0.1-0.1-0.1-0.1-0.2v-0.1c-0.1-0.3-0.1-0.5-0.1-0.7
					c0.1-0.3,0.2-0.6,0.3-0.8l0.1-0.1c0,0,0.1-0.1,0.1-0.1c0.1-0.1,0.2-0.1,0.3-0.2c0.3-0.1,0.8-0.3,1.2,0.2
					C350.8,153.5,350.9,153.9,350.8,154.3z M350.5,152.1c-0.6-0.2-1.2-0.2-1.7,0.1c-0.1,0.1-0.2,0.1-0.2,0.1
					c-0.2-0.1-0.2-0.1-0.2-0.2l0.1-0.1c0.2-0.2,0.4-0.5,0.7-0.7l1.9-2.2l1.2,1.1c0.3,0.2,0.6,0.4,0.9,0.7c0.6,0.4,1.2,0.9,1.6,1.4
					c-0.3,0.3-0.5,0.6-0.7,0.8l-1.9,2.2l-0.1-0.1c0.1-0.2,0.1-0.3,0.2-0.5c0.1-0.6,0-1.1-0.3-1.6
					C351.6,152.6,351.1,152.3,350.5,152.1z"/>
			</g>
		</g>
	</g>
	<g>
		<path class="st1" d="M156,248c-1.2-0.3-7.2-1.7-12.7-3.6c-5.5-1.9-10.7-4.2-10.2-7.6c0.6-4.6,6.5-2.2,12,1.7
			C150.6,242.5,155.5,247.9,156,248z"/>
	</g>
	<g>
		<path class="st1" d="M155.8,257.2c-0.6,0.4-2.3,1.3-4.5,2.6c-2.2,1.3-4.9,2.9-7.6,4.5c-5.4,3.1-10.5,6.1-13.1,3.7
			c-1.7-1.6-1.2-3.3,0.8-4.9c2-1.6,5.3-3,8.9-4c3.6-1,7.4-1.5,10.3-1.7C153.5,257.3,155.6,257.4,155.8,257.2z"/>
	</g>
	<g>
		<path class="st1" d="M160.7,270.1c-0.4,0.5-1.6,1.8-3.1,3.6c-1.5,1.8-3.2,4.1-4.9,6.3c-3.4,4.4-6.2,8.9-9.5,8
			c-2.2-0.6-2.6-2.3-1.6-4.5c1-2.2,3.3-4.8,6.1-6.9c2.8-2.1,6-3.8,8.5-4.8C158.7,270.8,160.5,270.3,160.7,270.1z"/>
	</g>
	<g>
		<path class="st1" d="M254.3,243.3c0.2-0.8,1.4-4.8,2.8-8.3c1.5-3.5,3.3-6.6,6.6-5.6c2.2,0.6,2.8,1.9,2.4,3.4
			c-0.4,1.5-1.8,3.3-3.5,4.9c-1.7,1.6-3.8,2.9-5.4,3.9C255.6,242.5,254.4,243.1,254.3,243.3z"/>
	</g>
	<g>
		<path class="st1" d="M259.2,251.6c0.8-0.6,5.1-3.6,9.7-5.6c4.6-2,9.4-2.9,10.8,0.2c2,4.2-2.9,5.2-8.4,5.4
			C265.8,251.9,259.6,251.3,259.2,251.6z"/>
	</g>
	<g>
		<path class="st1" d="M262.4,260.3c1.1-0.2,6.8-1.3,12.1-1.7c5.4-0.4,10.6-0.3,11.5,3c1.2,4.5-4.7,4.6-10.8,3.1
			C269,263.2,262.9,260.1,262.4,260.3z"/>
	</g>
</g>
</svg>
